<svg xmlns="http://www.w3.org/2000/svg" xmlns:svg="http://www.w3.org/2000/svg" id="svg2" width="789.333" height="412" version="1.1" viewBox="0 0 789.333 412" xml:space="preserve"><metadata id="metadata8"/><defs id="defs6"><clipPath id="clipPath20" clipPathUnits="userSpaceOnUse"><path id="path18" d="M 0,0 H 300887 V 157431 H 0 Z"/></clipPath></defs><g id="g10" transform="matrix(1.3333333,0,0,-1.3333333,0,412)"><g id="g12" transform="matrix(1,0,0,-1,0,309)"><g id="g14" transform="scale(0.0019685)"><g id="g16" clip-path="url(#clipPath20)"><g id="g22"><g id="g24"><g id="g26"><path id="path28" fill="#000" fill-opacity="0" fill-rule="evenodd" stroke="none" d="M 0,0 H 300887 V 157431 H 0 Z"/></g></g></g><g id="g30"><g id="g32"><g id="g34"><path id="path36" fill="#000" fill-opacity="0" fill-rule="evenodd" stroke="none" d="M 50748,3279 H 265284 V 152895 H 50748 Z"/></g></g><path id="path38" fill="none" stroke="#980000" stroke-dasharray="none" stroke-linecap="butt" stroke-linejoin="round" stroke-miterlimit="8" stroke-opacity="1" stroke-width="381" d="M 50748,3279 H 265284 V 152895 H 50748 Z"/></g><g id="g40"><g id="g42"><g id="g44"><path id="path46" fill="#000" fill-opacity="0" fill-rule="evenodd" stroke="none" d="m 163134,15389 h 91440 v 129912 h -91440 z"/></g></g><path id="path48" fill="none" stroke="#00f" stroke-dasharray="none" stroke-linecap="butt" stroke-linejoin="round" stroke-miterlimit="8" stroke-opacity="1" stroke-width="381" d="m 163134,15389 h 91440 v 129912 h -91440 z"/></g><g id="g50"><g id="g52"><g id="g54"><path id="path56" fill="#000" fill-opacity="0" fill-rule="evenodd" stroke="none" d="m 62735,15389 h 91440 V 145301 H 62735 Z"/></g></g><path id="path58" fill="none" stroke="#00f" stroke-dasharray="1524 1143 381 1143" stroke-dashoffset="0" stroke-linecap="butt" stroke-linejoin="round" stroke-miterlimit="8" stroke-opacity="1" stroke-width="381" d="m 62735,15389 h 91440 V 145301 H 62735 Z"/></g><g id="g60"><g id="g62"><path id="path64" fill="#cfe2f3" fill-opacity="1" fill-rule="evenodd" stroke="none" d="m 76196,31488 64512,16128 v 72204 l -64512,16128 z"/></g><path id="path66" fill="none" stroke="#000" stroke-dasharray="none" stroke-linecap="butt" stroke-linejoin="round" stroke-miterlimit="8" stroke-opacity="1" stroke-width="381" d="m 76196,31488 64512,16128 v 72204 l -64512,16128 z"/></g><g id="g68"><g id="g70"><path id="path72" fill="#cfe2f3" fill-opacity="1" fill-rule="evenodd" stroke="none" d="m 168676,65164 v 0 c 0,-4493.39 3776.92,-8136 8436,-8136 v 0 c 2237.36,0 4383.1,857.184 5965.16,2382.98 1582.04,1525.793 2470.84,3595.22 2470.84,5753.02 v 0 c 0,4493.39 -3776.92,8136 -8436,8136 v 0 c -4659.08,0 -8436,-3642.61 -8436,-8136 z"/></g><path id="path74" fill="none" stroke="#000" stroke-dasharray="none" stroke-linecap="butt" stroke-linejoin="round" stroke-miterlimit="8" stroke-opacity="1" stroke-width="381" d="m 168676,65164 v 0 c 0,-4493.39 3776.92,-8136 8436,-8136 v 0 c 2237.36,0 4383.1,857.184 5965.16,2382.98 1582.04,1525.793 2470.84,3595.22 2470.84,5753.02 v 0 c 0,4493.39 -3776.92,8136 -8436,8136 v 0 c -4659.08,0 -8436,-3642.61 -8436,-8136 z"/></g><g id="g76"><g id="g78"><path id="path80" fill="#cfe2f3" fill-opacity="1" fill-rule="evenodd" stroke="none" d="m 168676,101148 v 0 c 0,-4493.39 3776.92,-8136 8436,-8136 v 0 c 2237.36,0 4383.1,857.18 5965.16,2382.98 1582.04,1525.79 2470.84,3595.215 2470.84,5753.02 v 0 c 0,4493.39 -3776.92,8136 -8436,8136 v 0 c -4659.08,0 -8436,-3642.61 -8436,-8136 z"/></g><path id="path82" fill="none" stroke="#000" stroke-dasharray="none" stroke-linecap="butt" stroke-linejoin="round" stroke-miterlimit="8" stroke-opacity="1" stroke-width="381" d="m 168676,101148 v 0 c 0,-4493.39 3776.92,-8136 8436,-8136 v 0 c 2237.36,0 4383.1,857.18 5965.16,2382.98 1582.04,1525.79 2470.84,3595.215 2470.84,5753.02 v 0 c 0,4493.39 -3776.92,8136 -8436,8136 v 0 c -4659.08,0 -8436,-3642.61 -8436,-8136 z"/></g><g id="g84"><g id="g86"><path id="path88" fill="#cfe2f3" fill-opacity="1" fill-rule="evenodd" stroke="none" d="m 203358,101148 v 0 c 0,-4493.39 3776.92,-8136 8436,-8136 v 0 c 2237.36,0 4383.1,857.18 5965.16,2382.98 1582.04,1525.79 2470.84,3595.215 2470.84,5753.02 v 0 c 0,4493.39 -3776.92,8136 -8436,8136 v 0 c -4659.08,0 -8436,-3642.61 -8436,-8136 z"/></g><path id="path90" fill="none" stroke="#000" stroke-dasharray="none" stroke-linecap="butt" stroke-linejoin="round" stroke-miterlimit="8" stroke-opacity="1" stroke-width="381" d="m 203358,101148 v 0 c 0,-4493.39 3776.92,-8136 8436,-8136 v 0 c 2237.36,0 4383.1,857.18 5965.16,2382.98 1582.04,1525.79 2470.84,3595.215 2470.84,5753.02 v 0 c 0,4493.39 -3776.92,8136 -8436,8136 v 0 c -4659.08,0 -8436,-3642.61 -8436,-8136 z"/></g><g id="g92"><g id="g94"><path id="path96" fill="#cfe2f3" fill-opacity="1" fill-rule="evenodd" stroke="none" d="m 203358,65164 v 0 c 0,-4493.39 3776.92,-8136 8436,-8136 v 0 c 2237.36,0 4383.1,857.184 5965.16,2382.98 1582.04,1525.793 2470.84,3595.22 2470.84,5753.02 v 0 c 0,4493.39 -3776.92,8136 -8436,8136 v 0 c -4659.08,0 -8436,-3642.61 -8436,-8136 z"/></g><path id="path98" fill="none" stroke="#000" stroke-dasharray="none" stroke-linecap="butt" stroke-linejoin="round" stroke-miterlimit="8" stroke-opacity="1" stroke-width="381" d="m 203358,65164 v 0 c 0,-4493.39 3776.92,-8136 8436,-8136 v 0 c 2237.36,0 4383.1,857.184 5965.16,2382.98 1582.04,1525.793 2470.84,3595.22 2470.84,5753.02 v 0 c 0,4493.39 -3776.92,8136 -8436,8136 v 0 c -4659.08,0 -8436,-3642.61 -8436,-8136 z"/></g><g id="g100"><g id="g102"><path id="path104" fill="#cfe2f3" fill-opacity="1" fill-rule="evenodd" stroke="none" d="m 222652,83157 v 0 c 0,-4493.39 3776.92,-8136 8436,-8136 v 0 c 2237.36,0 4383.1,857.18 5965.16,2382.98 1582.04,1525.79 2470.84,3595.215 2470.84,5753.02 v 0 c 0,4493.39 -3776.92,8136 -8436,8136 v 0 c -4659.08,0 -8436,-3642.61 -8436,-8136 z"/></g><path id="path106" fill="none" stroke="#000" stroke-dasharray="none" stroke-linecap="butt" stroke-linejoin="round" stroke-miterlimit="8" stroke-opacity="1" stroke-width="381" d="m 222652,83157 v 0 c 0,-4493.39 3776.92,-8136 8436,-8136 v 0 c 2237.36,0 4383.1,857.18 5965.16,2382.98 1582.04,1525.79 2470.84,3595.215 2470.84,5753.02 v 0 c 0,4493.39 -3776.92,8136 -8436,8136 v 0 c -4659.08,0 -8436,-3642.61 -8436,-8136 z"/></g><g id="g108"><g id="g110"><g id="g112"><path id="path114" fill="#000" fill-opacity="0" fill-rule="evenodd" stroke="none" d="m 183077.16,70917.02 22752,24480"/></g></g><path id="path116" fill="none" stroke="#000" stroke-dasharray="none" stroke-linecap="butt" stroke-linejoin="round" stroke-miterlimit="8" stroke-opacity="1" stroke-width="381" d="m 183077.16,70917.02 22752,24480"/></g><g id="g118"><g id="g120"><g id="g122"><path id="path124" fill="#000" fill-opacity="0" fill-rule="evenodd" stroke="none" d="m 183077.16,95394.98 22752,-24480"/></g></g><path id="path126" fill="none" stroke="#000" stroke-dasharray="none" stroke-linecap="butt" stroke-linejoin="round" stroke-miterlimit="8" stroke-opacity="1" stroke-width="381" d="m 183077.16,95394.98 22752,-24480"/></g><g id="g128"><g id="g130"><g id="g132"><path id="path134" fill="#000" fill-opacity="0" fill-rule="evenodd" stroke="none" d="m 185548,101148 h 17808"/></g></g><path id="path136" fill="none" stroke="#000" stroke-dasharray="none" stroke-linecap="butt" stroke-linejoin="round" stroke-miterlimit="8" stroke-opacity="1" stroke-width="381" d="m 185548,101148 h 17808"/></g><g id="g138"><g id="g140"><g id="g142"><path id="path144" fill="#000" fill-opacity="0" fill-rule="evenodd" stroke="none" d="m 185548,65164 h 17808"/></g></g><path id="path146" fill="none" stroke="#000" stroke-dasharray="none" stroke-linecap="butt" stroke-linejoin="round" stroke-miterlimit="8" stroke-opacity="1" stroke-width="381" d="m 185548,65164 h 17808"/></g><g id="g148"><g id="g150"><g id="g152"><path id="path154" fill="#000" fill-opacity="0" fill-rule="evenodd" stroke="none" d="m 217759.16,70917.02 7368,6492"/></g></g><path id="path156" fill="none" stroke="#000" stroke-dasharray="none" stroke-linecap="butt" stroke-linejoin="round" stroke-miterlimit="8" stroke-opacity="1" stroke-width="381" d="m 217759.16,70917.02 7368,6492"/></g><g id="g158"><g id="g160"><g id="g162"><path id="path164" fill="#000" fill-opacity="0" fill-rule="evenodd" stroke="none" d="m 217759.16,95394.98 7368,-6480"/></g></g><path id="path166" fill="none" stroke="#000" stroke-dasharray="none" stroke-linecap="butt" stroke-linejoin="round" stroke-miterlimit="8" stroke-opacity="1" stroke-width="381" d="m 217759.16,95394.98 7368,-6480"/></g><g id="g168"><g id="g170"><g id="g172"><path id="path174" fill="#000" fill-opacity="0" fill-rule="evenodd" stroke="none" d="m 140708,83718 27972,17436"/></g></g><path id="path176" fill="none" stroke="#000" stroke-dasharray="none" stroke-linecap="butt" stroke-linejoin="round" stroke-miterlimit="8" stroke-opacity="1" stroke-width="381" d="m 140708,83718 27972,17436"/></g><g id="g178"><g id="g180"><g id="g182"><path id="path184" fill="#000" fill-opacity="0" fill-rule="evenodd" stroke="none" d="M 140708,83718 168680,65166"/></g></g><path id="path186" fill="none" stroke="#000" stroke-dasharray="none" stroke-linecap="butt" stroke-linejoin="round" stroke-miterlimit="8" stroke-opacity="1" stroke-width="381" d="M 140708,83718 168680,65166"/></g><g id="g188"><g id="g190"><g id="g192"><path id="path194" fill="#000" fill-opacity="0" fill-rule="evenodd" stroke="none" d="m 168676,101148 -28116,-528"/></g></g><path id="path196" fill="none" stroke="#000" stroke-dasharray="none" stroke-linecap="butt" stroke-linejoin="round" stroke-miterlimit="8" stroke-opacity="1" stroke-width="381" d="m 168676,101148 -28116,-528"/></g><g id="g198"><g id="g200"><g id="g202"><path id="path204" fill="#000" fill-opacity="0" fill-rule="evenodd" stroke="none" d="m 168676,65164 -27816,35748"/></g></g><path id="path206" fill="none" stroke="#000" stroke-dasharray="none" stroke-linecap="butt" stroke-linejoin="round" stroke-miterlimit="8" stroke-opacity="1" stroke-width="381" d="m 168676,65164 -27816,35748"/></g><g id="g208"><g id="g210"><g id="g212"><path id="path214" fill="#000" fill-opacity="0" fill-rule="evenodd" stroke="none" d="M 168676,101148 141160,66288"/></g></g><path id="path216" fill="none" stroke="#000" stroke-dasharray="none" stroke-linecap="butt" stroke-linejoin="round" stroke-miterlimit="8" stroke-opacity="1" stroke-width="381" d="M 168676,101148 141160,66288"/></g><g id="g218"><g id="g220"><g id="g222"><path id="path224" fill="#000" fill-opacity="0" fill-rule="evenodd" stroke="none" d="m 168676,65164 -27516,828"/></g></g><path id="path226" fill="none" stroke="#000" stroke-dasharray="none" stroke-linecap="butt" stroke-linejoin="round" stroke-miterlimit="8" stroke-opacity="1" stroke-width="381" d="m 168676,65164 -27516,828"/></g><g id="g228"><g id="g230"><g id="g232"><path id="path234" fill="#000" fill-opacity="0" fill-rule="evenodd" stroke="none" d="m 77009.5,70917 h 62736 v 29736 h -62736 z"/></g></g></g><g id="g236" transform="scale(381)"><g id="g238" transform="translate(202.12466,186.13387)"><g id="g240"><text id="text244" fill="#000" fill-opacity="1" fill-rule="nonzero" stroke="none" font-family="ArialMT" font-size="18.667" font-variant="normal" font-weight="normal" transform="translate(9,26.919998)" writing-mode="lr-tb" style="-inkscape-font-specification:ArialMT"><tspan id="tspan242" x="0 13.477" y="0">RL</tspan></text><text id="text248" fill="#000" fill-opacity="1" fill-rule="nonzero" stroke="none" font-family="ArialMT" font-size="18.667" font-variant="normal" font-weight="normal" transform="translate(9,48.92)" writing-mode="lr-tb" style="-inkscape-font-specification:ArialMT"><tspan id="tspan246" x="0 13.477 23.856 34.235 40.451 50.829 60.163 70.541 80.92 86.091 96.469 101.64 105.784 116.163" y="0">Representation</tspan></text></g></g></g><g id="g252"><g id="g254"><g id="g256"><path id="path258" fill="#000" fill-opacity="0" fill-rule="evenodd" stroke="none" d="m 95729,13021.148 h 25452 v 14124 H 95729 Z"/></g></g></g><g id="g260" transform="scale(381)"><g id="g262" transform="translate(251.25722,34.176243)"><g id="g264"><text id="text268" fill="#00f" fill-opacity="1" fill-rule="nonzero" stroke="none" font-family="ArialMT" font-size="18.667" font-variant="normal" font-weight="normal" transform="translate(9,26.919998)" writing-mode="lr-tb" style="-inkscape-font-specification:ArialMT"><tspan id="tspan266" x="0 12.432 25.909" y="0">SRL</tspan></text></g></g></g><g id="g272"><g id="g274"><g id="g276"><path id="path278" fill="#000" fill-opacity="0" fill-rule="evenodd" stroke="none" d="m 197478,13020.505 h 22752 v 14124.001 h -22752 z"/></g></g></g><g id="g280" transform="scale(381)"><g id="g282" transform="translate(518.31494,34.174553)"><g id="g284"><text id="text288" fill="#00f" fill-opacity="1" fill-rule="nonzero" stroke="none" font-family="ArialMT" font-size="18.667" font-variant="normal" font-weight="normal" transform="translate(9,26.919998)" writing-mode="lr-tb" style="-inkscape-font-specification:ArialMT"><tspan id="tspan286" x="0 13.477" y="0">RL</tspan></text></g></g></g><g id="g292"><g id="g294"><g id="g296"><path id="path298" fill="#000" fill-opacity="0" fill-rule="evenodd" stroke="none" d="m 129804,0 h 56424 v 8496 h -56424 z"/></g></g></g><g id="g300" transform="scale(381)"><g id="g302" transform="translate(340.6929)"><g id="g304"><text id="text308" fill="#980000" fill-opacity="1" fill-rule="nonzero" stroke="none" font-family="ArialMT" font-size="18.667" font-variant="normal" font-weight="normal" transform="translate(9,26.919998)" writing-mode="lr-tb" style="-inkscape-font-specification:ArialMT"><tspan id="tspan306" x="0 12.432 22.811 33.189 38.36 43.531 53.909 59.08 69.459 79.837 90.216 95.387 108.864" y="0">End to end RL</tspan></text></g></g></g><g id="g312"><g id="g314"><g id="g316"><path id="path318" fill="#000" fill-opacity="0" fill-rule="evenodd" stroke="none" d="m 3116,83454 73080,264"/></g></g><path id="path320" fill="none" stroke="#000" stroke-dasharray="none" stroke-linecap="butt" stroke-linejoin="round" stroke-miterlimit="8" stroke-opacity="1" stroke-width="381" d="m 3116,83454 70794.016,255.74"/><path id="path322" fill="#000" fill-opacity="1" fill-rule="evenodd" stroke="#000" stroke-dasharray="none" stroke-linecap="butt" stroke-linejoin="miter" stroke-miterlimit="10" stroke-opacity="1" stroke-width="381" d="m 73907.74,84339.05 1731.276,-623.066 -1726.726,-635.544 z"/></g><g id="g324"><g id="g326"><g id="g328"><path id="path330" fill="#000" fill-opacity="0" fill-rule="evenodd" stroke="none" d="m 239524,83157 59352,-300"/></g></g><path id="path332" fill="none" stroke="#000" stroke-dasharray="none" stroke-linecap="butt" stroke-linejoin="round" stroke-miterlimit="8" stroke-opacity="1" stroke-width="381" d="m 239524,83157 57066.03,-288.445"/><path id="path334" fill="#000" fill-opacity="1" fill-rule="evenodd" stroke="#000" stroke-dasharray="none" stroke-linecap="butt" stroke-linejoin="miter" stroke-miterlimit="10" stroke-opacity="1" stroke-width="381" d="m 296593.22,83497.86 1725.81,-638.05 -1732.19,-620.56 z"/></g><g id="g336"><g id="g338"><g id="g340"><path id="path342" fill="#000" fill-opacity="0" fill-rule="evenodd" stroke="none" d="M 0,70915 H 59184 V 81367 H 0 Z"/></g></g></g><g id="g344" transform="scale(381)"><g id="g346" transform="translate(0,186.12862)"><g id="g348"><text id="text352" fill="#000" fill-opacity="1" fill-rule="nonzero" stroke="none" font-family="ArialMT" font-size="18.667" font-variant="normal" font-weight="normal" transform="translate(9,26.919998)" writing-mode="lr-tb" style="-inkscape-font-specification:ArialMT"><tspan id="tspan350" x="0 14.504 24.883 34.216 44.595 50.811 60.144 70.523 75.693 79.837 90.216 100.595" y="0">Observations</tspan></text></g></g></g><g id="g356"><g id="g358"><g id="g360"><path id="path362" fill="#000" fill-opacity="0" fill-rule="evenodd" stroke="none" d="m 269413,69216 h 37284 v 10452 h -37284 z"/></g></g></g><g id="g364" transform="scale(381)"><g id="g366" transform="translate(707.1207,181.6693)"><g id="g368"><text id="text372" fill="#000" fill-opacity="1" fill-rule="nonzero" stroke="none" font-family="ArialMT" font-size="18.667" font-variant="normal" font-weight="normal" transform="translate(9,26.919998)" writing-mode="lr-tb" style="-inkscape-font-specification:ArialMT"><tspan id="tspan370" x="0 12.432 21.765 26.936 31.08 41.459 51.837" y="0">Actions</tspan></text></g></g></g></g></g></g></g></svg>